<svg width="36" height="36" viewBox="0 0 36 36" fill="none" xmlns="http://www.w3.org/2000/svg">
<path d="M1 0C0.447715 0 0 0.447715 0 1C0 1.55228 0.447715 2 1 2V0ZM5.0597 1L6.02559 0.741032C5.90839 0.303922 5.51225 0 5.0597 0V1ZM11.6567 25.6052L10.6908 25.8642C10.8203 26.3469 11.2862 26.6599 11.782 26.5973L11.6567 25.6052ZM31.9552 23.0422L32.0805 24.0343C32.5054 23.9806 32.8489 23.6624 32.9349 23.2428L31.9552 23.0422ZM35 8.17652L35.9797 8.37717C36.0399 8.08288 35.9647 7.77708 35.7748 7.54432C35.5849 7.31156 35.3004 7.17652 35 7.17652V8.17652ZM6.98383 8.17652L6.01794 8.43548L6.98383 8.17652ZM1 2H5.0597V0H1V2ZM11.782 26.5973L32.0805 24.0343L31.8299 22.05L11.5314 24.6131L11.782 26.5973ZM32.9349 23.2428L35.9797 8.37717L34.0203 7.97586L30.9756 22.8415L32.9349 23.2428ZM4.09382 1.25897L6.01794 8.43548L7.94972 7.91755L6.02559 0.741032L4.09382 1.25897ZM6.01794 8.43548L10.6908 25.8642L12.6226 25.3462L7.94972 7.91755L6.01794 8.43548ZM35 7.17652H6.98383V9.17652H35V7.17652ZM17 32.3168C17 33.256 16.249 34 15.3438 34V36C17.3725 36 19 34.3414 19 32.3168H17ZM15.3438 34C14.4385 34 13.6875 33.256 13.6875 32.3168H11.6875C11.6875 34.3414 13.315 36 15.3438 36V34ZM13.6875 32.3168C13.6875 31.3777 14.4385 30.6336 15.3438 30.6336V28.6336C13.315 28.6336 11.6875 30.2922 11.6875 32.3168H13.6875ZM15.3438 30.6336C16.249 30.6336 17 31.3777 17 32.3168H19C19 30.2922 17.3725 28.6336 15.3438 28.6336V30.6336ZM31.1667 32.3168C31.1667 33.256 30.4157 34 29.5104 34V36C31.5392 36 33.1667 34.3414 33.1667 32.3168H31.1667ZM29.5104 34C28.6052 34 27.8542 33.256 27.8542 32.3168H25.8542C25.8542 34.3414 27.4816 36 29.5104 36V34ZM27.8542 32.3168C27.8542 31.3777 28.6052 30.6336 29.5104 30.6336V28.6336C27.4816 28.6336 25.8542 30.2922 25.8542 32.3168H27.8542ZM29.5104 30.6336C30.4157 30.6336 31.1667 31.3777 31.1667 32.3168H33.1667C33.1667 30.2922 31.5392 28.6336 29.5104 28.6336V30.6336Z" fill="white"/>
</svg>
