<svg width="24" height="22" viewBox="0 0 24 22" fill="none" xmlns="http://www.w3.org/2000/svg">
<path fill-rule="evenodd" clip-rule="evenodd" d="M20.4945 3.19886C18.2434 1.13424 15.242 0 12.0458 0C5.46444 0 0.103103 4.89237 0.0973747 10.8981C0.0973747 12.8216 0.647255 14.6928 1.68974 16.3497L0 22L6.33508 20.4842C8.0821 21.3519 10.0468 21.8118 12.0458 21.8118H12.0516C18.6329 21.8118 23.9943 16.9195 24 10.9085C23.9943 7.99715 22.7513 5.25826 20.4945 3.19886ZM12.0458 19.9667C10.2587 19.9667 8.51169 19.5277 6.98807 18.7018L6.62721 18.5032L2.86969 19.4022L3.87208 16.057L3.63723 15.712C2.64057 14.2694 2.11933 12.602 2.11933 10.8928C2.11933 5.90639 6.57566 1.83987 12.0516 1.83987C14.7036 1.83987 17.1952 2.78593 19.074 4.49513C20.947 6.20955 21.978 8.48325 21.978 10.9033C21.9723 15.9054 17.516 19.9667 12.0458 19.9667ZM17.4931 13.1822C17.1952 13.0463 15.7289 12.3877 15.4539 12.2937C15.179 12.2048 14.9785 12.1578 14.7838 12.4296C14.5833 12.7014 14.0105 13.3181 13.8387 13.4958C13.6668 13.6788 13.4893 13.6997 13.1914 13.5638C12.8936 13.4279 11.9313 13.1404 10.7914 12.21C9.90358 11.4887 9.30788 10.5949 9.13031 10.3231C8.95847 10.0513 9.11313 9.90497 9.26205 9.76907C9.3938 9.64885 9.55991 9.45023 9.70883 9.29342C9.85776 9.13661 9.90931 9.02162 10.0067 8.83868C10.1041 8.65574 10.0582 8.49893 9.98377 8.36303C9.90931 8.22713 9.3136 6.88382 9.06157 6.34022C8.821 5.80708 8.5747 5.88026 8.39141 5.87503C8.21957 5.86458 8.01909 5.86458 7.81862 5.86458C7.61814 5.86458 7.29737 5.93253 7.02243 6.20432C6.74749 6.47612 5.97995 7.13471 5.97995 8.47802C5.97995 9.82133 7.05107 11.1124 7.2 11.2953C7.34893 11.4783 9.30215 14.2276 12.2979 15.4089C13.0081 15.6911 13.5637 15.8584 13.999 15.9838C14.715 16.1929 15.3623 16.1616 15.8778 16.0936C16.4506 16.0152 17.642 15.435 17.894 14.7973C18.1403 14.1597 18.1403 13.6161 18.0659 13.5011C17.9914 13.3861 17.7909 13.3181 17.4931 13.1822Z" fill="#545454"/>
</svg>
